<?xml version="1.0" encoding="UTF-8"?><svg xmlns="http://www.w3.org/2000/svg" viewBox="0 0 147.3 148.41"><defs><style>.d,.e{fill:#fff;}.d,.e,.f{stroke-miterlimit:10;stroke-width:.9px;}.d,.f{stroke:#231f20;}.e{stroke:#000;}.f{fill:none;}</style></defs><g id="a"/><g id="b"><g id="c"><g><path class="d" d="M11.34,60.79c-4.98,38.06,21.19,73.05,58.44,78.13,37.24,5.09,71.49-21.65,76.46-59.71C151.22,41.14,125.05,6.15,87.8,1.07,50.55-4.02,16.33,22.73,11.34,60.79Z"/><path d="M96.95,95.27c-4.3,2.82-9.66,4.75-16.22,4.5-11.23-.45-22.07-7.06-24.33-22.41l-5.46-.22,.2-5.14,4.77,.18c-.05-1.02,0-2.06,.04-3.16,.05-1.19,.09-2.31,.21-3.42l-4.79-.18,.2-5.14,5.46,.21c3.21-13.43,12.74-21.01,25.97-20.47,5.46,.22,10.76,1.97,15.4,5.59l-4.32,5.23c-3.34-2.53-7.16-3.97-11.34-4.14-8.46-.34-15.37,4.36-18.17,14.1l23.81,.96-.2,5.14-24.56-1c-.12,1.12-.26,2.22-.31,3.42-.04,1.12-.07,2.14-.03,3.16l24.65,1-.19,5.14-23.81-.96c2.11,10.46,9.33,15.03,17.03,15.34,4.96,.2,8.86-1.01,12.22-3.36l3.75,5.62Z"/><path class="f" d="M24.03,62.52c-4.04,30.91,17.21,59.32,47.45,63.45,30.24,4.13,58.05-17.59,62.08-48.49,4.04-30.91-17.21-59.32-47.45-63.45C55.86,9.9,28.07,31.61,24.03,62.52Z"/><path class="e" d="M99.96,142.6c-11.1-25.39-52.81-44.81-72.82-25.61,3.99,26.69,49.2,38.78,72.82,25.61"/><path class="e" d="M7.68,40.07c23.83,13.37,39.49,57.44,19.24,76.27C1.27,110.12-6.98,63.07,7.68,40.07"/></g></g></g></svg>