<?xml version="1.0" encoding="UTF-8"?><svg xmlns="http://www.w3.org/2000/svg" viewBox="0 0 167.19 147.8"><defs><style>.d{fill:#d2c8c3;}.e{stroke:#000;}.e,.f{fill:none;stroke-miterlimit:10;stroke-width:3.29px;}.f{stroke:#f1646f;}</style></defs><g id="a"/><g id="b"><g id="c"><g><g><path class="d" d="M156.62,147.8H10.58c-5.84,0-10.58-4.73-10.58-10.57V47.32c0-5.84,4.74-10.57,10.58-10.57H156.62c5.84,0,10.57,4.74,10.57,10.57v89.91c0,5.84-4.73,10.57-10.57,10.57"/><path class="d" d="M106.59,40.18V20.38c0-4.51-3.66-8.17-8.17-8.17h-29.67c-4.51,0-8.17,3.66-8.17,8.17v19.8h-13.51V13.88c0-7.67,6.21-13.88,13.88-13.88h45.28c7.67,0,13.88,6.21,13.88,13.88v26.3h-13.52Z"/></g><line class="e" x1=".15" y1="81.22" x2="167.01" y2="81.22"/><path class="f" d="M79.38,92.12v-21.58c0-2.19,1.62-3.97,3.6-3.97h1.2c1.99,0,3.6,1.78,3.6,3.97v21.58c0,2.19-1.62,3.96-3.6,3.96h-1.2c-1.99,0-3.6-1.77-3.6-3.96Z"/></g></g></g></svg>