<svg xmlns="http://www.w3.org/2000/svg" viewBox="0 0 580.23 558"><defs><style>.cls-1,.cls-4,.cls-6,.cls-8{fill:#d7d2cb;}.cls-1,.cls-2,.cls-6{stroke:#000;}.cls-1,.cls-2,.cls-7,.cls-8{stroke-linejoin:round;}.cls-2,.cls-5,.cls-7{fill:none;}.cls-3{fill:#f3f1ef;stroke:#000001;stroke-width:1.25px;}.cls-3,.cls-5,.cls-6{stroke-miterlimit:10;}.cls-5{stroke:#d7d2cb;stroke-width:12px;}.cls-7,.cls-8{stroke:#ff5b69;stroke-width:1.5px;}</style></defs><g id="Layer_2" data-name="Layer 2"><path class="cls-1" d="M425.3,252.54v-9.6a40,40,0,0,0-40-40H201.41a40,40,0,0,0-40,40v9.6Z"/><line class="cls-2" x1="425.07" y1="251.4" x2="412.67" y2="316.27"/><line class="cls-2" x1="161.41" y1="252.54" x2="173.81" y2="317.4"/><rect class="cls-3" x="271.32" y="154.06" width="91.92" height="156.5" transform="translate(33.26 -39.66) rotate(7.55)"/><circle class="cls-4" cx="317.28" cy="232.31" r="28.68"/><line class="cls-5" x1="294.84" y1="169.95" x2="355.95" y2="178.05"/><line class="cls-5" x1="278.91" y1="287.32" x2="340.02" y2="295.42"/><rect class="cls-3" x="225.56" y="186.86" width="91.92" height="156.5" transform="translate(-30.14 34.88) rotate(-6.96)"/><circle class="cls-4" cx="271.52" cy="265.11" r="28.68"/><line class="cls-5" x1="234.17" y1="211.27" x2="295.36" y2="203.79"/><polygon class="cls-1" points="424.44 310.69 424.44 321.32 424.44 451.45 160.55 451.45 160.55 321.32 160.55 310.69 424.44 310.69"/><path class="cls-6" d="M404,350.1a19.9,19.9,0,0,1-19.9-19.9H201.23a19.9,19.9,0,0,1-19.89,19.9v62.78a19.9,19.9,0,0,1,19.89,19.89H384.09A19.9,19.9,0,0,1,404,412.88h-.34V350.1"/><g id="_Radial_Repeat_" data-name="&lt;Radial Repeat&gt;"><line class="cls-7" x1="158.59" y1="150.94" x2="201.19" y2="169.31"/></g><g id="_Radial_Repeat_2" data-name="&lt;Radial Repeat&gt;"><line class="cls-7" x1="181.46" y1="114.3" x2="217" y2="144.13"/></g><g id="_Radial_Repeat_3" data-name="&lt;Radial Repeat&gt;"><line class="cls-7" x1="213.88" y1="85.76" x2="239.37" y2="124.53"/></g><g id="_Radial_Repeat_4" data-name="&lt;Radial Repeat&gt;"><line class="cls-7" x1="253.12" y1="67.72" x2="266.43" y2="112.17"/></g><g id="_Radial_Repeat_5" data-name="&lt;Radial Repeat&gt;"><line class="cls-7" x1="295.88" y1="61.7" x2="295.88" y2="108.09"/></g><g id="_Radial_Repeat_6" data-name="&lt;Radial Repeat&gt;"><line class="cls-7" x1="338.58" y1="68.18" x2="325.27" y2="112.63"/></g><g id="_Radial_Repeat_7" data-name="&lt;Radial Repeat&gt;"><line class="cls-7" x1="377.62" y1="86.65" x2="352.13" y2="125.41"/></g><g id="_Radial_Repeat_8" data-name="&lt;Radial Repeat&gt;"><line class="cls-7" x1="409.73" y1="115.53" x2="374.19" y2="145.36"/></g><g id="_Radial_Repeat_9" data-name="&lt;Radial Repeat&gt;"><line class="cls-7" x1="432.21" y1="152.41" x2="389.6" y2="170.79"/></g><path class="cls-8" d="M328.11,311.31V344a34.21,34.21,0,0,1-34.21,34.21h-2.81A34.21,34.21,0,0,1,256.88,344V311.31"/><path d="M297,340.83a10.35,10.35,0,1,0-8.93,0l-.71,2.28-2.89,16.57h16.13l-2.89-16.57Z"/></g></svg>