<svg xmlns="http://www.w3.org/2000/svg" viewBox="0 0 953.63 680.14"><defs><style>.cls-1,.cls-2,.cls-21,.cls-6,.cls-9{fill:none;}.cls-1{stroke:#ff5b69;stroke-width:1.5px;}.cls-1,.cls-21{stroke-miterlimit:10;}.cls-10,.cls-11,.cls-12,.cls-13,.cls-14,.cls-16,.cls-17,.cls-18,.cls-2,.cls-20,.cls-21,.cls-22,.cls-6,.cls-9{stroke:#000;}.cls-10,.cls-11,.cls-12,.cls-13,.cls-14,.cls-16,.cls-17,.cls-18,.cls-2,.cls-20,.cls-22,.cls-6,.cls-9{stroke-linejoin:round;}.cls-3{font-size:28.02px;}.cls-3,.cls-7{font-family:Averta-Bold, Averta;font-weight:700;}.cls-4{letter-spacing:-0.02em;}.cls-5{letter-spacing:-0.02em;}.cls-10,.cls-14,.cls-16,.cls-20,.cls-21,.cls-6{stroke-linecap:round;}.cls-7{font-size:26.86px;}.cls-8{letter-spacing:0em;}.cls-18,.cls-9{stroke-linecap:square;}.cls-10,.cls-11{fill:#615952;}.cls-12,.cls-16,.cls-18{fill:#b6a99b;}.cls-13,.cls-23{fill:#82786e;}.cls-15{fill:#ff5b69;}.cls-17,.cls-20{fill:#d7d2cb;}.cls-19{fill:#fff;}.cls-21{stroke-width:0.5px;}.cls-22{fill:#403d38;}</style></defs><g id="Layer_4" data-name="Layer 4"><path class="cls-1" d="M775.52,187.48c-4.89-35.16-36-64.65-78.27-58.77C648.54,135.49,623.93,172.56,616,205c-6.18,25.34,19.69,33.75,20.3,8.43,1.18-48.68-35.61-67.7-61.35-64.58-12,1.45-17.48,5.1-17.48,5.1"/><polyline class="cls-1" points="569.9 158.23 557.08 154.49 560.82 141.67"/><path class="cls-1" d="M236.4,353.61c19.76,30.74,70.26,48.3,122.94,46.1,74.2-3.09,159.45-83.18,132.27-89.22-21.47-4.76-24.79,90.64,55.82,119.55,26.87,9.64,105.09,12.36,143.08-49.5"/><polyline class="cls-1" points="678.2 383.18 690.99 379.35 694.82 392.13"/><path class="cls-1" d="M236.24,221.74c19.51-20.28,41.7-27.59,55.37-28.56,16.7-1.2,25.83,5.33,27.1,12.57.91,5.16-1.78,8.36-6.74,9.23-16.23,2.85-43.46-27.94-49.31-61.24C256.4,118.08,275.34,80.07,315,73.11c60-10.54,99.59,41.6,105.77,76.81"/><polyline class="cls-1" points="249.09 222.52 235.74 222.26 236 208.91"/><rect class="cls-2" x="400.55" y="131.89" width="124.73" height="187.09" rx="5.83" transform="translate(394.71 -284.92) rotate(56.42)"/><rect class="cls-2" x="421.93" y="149.42" width="90.87" height="146.11" rx="2.49" transform="translate(394.23 -289.95) rotate(56.42)"/><circle class="cls-2" cx="396.11" cy="269.78" r="7.13"/><text class="cls-3" transform="matrix(0.84, -0.54, 0.54, 0.84, 436.32, 251.71)"><tspan class="cls-4">T</tspan><tspan x="16" y="0">ie</tspan><tspan class="cls-5" x="39.25" y="0">t</tspan><tspan x="48.92" y="0">oa</tspan></text><path d="M114.9,252.65l6.77-2.41c4.43-1.58,7.28.31,8.53,3.81,1.43,4-.59,6.91-4.61,8.34l-2.83,1,2.23,6.25-3.58,1.28Zm9.17,6.68c2.27-.8,2.94-2.32,2.35-4s-2.08-2.42-4.17-1.68l-2.62.93,2,5.61Z"/><path d="M134,259.39c-1.36-3.81.23-7.42,3.6-8.62a5,5,0,0,1,4.3.33l0,0-.51-1.45,3.37-1.2L149.29,261l-3.22,1.15-.53-1.5h-.06a4.82,4.82,0,0,1-3.16,3.1C138.87,265,135.39,263.28,134,259.39Zm9.84-3.47a3.49,3.49,0,0,0-4.44-2.39,3.42,3.42,0,0,0-2,4.67,3.38,3.38,0,0,0,4.44,2.28A3.42,3.42,0,0,0,143.85,255.92Z"/><path d="M145.91,240.85l3.38-1.2,6.74,19-3.37,1.2Z"/><path d="M154.07,245.12l3.61-1.29,5.91,7.41h0l-.05-9.5,3.53-1.25-.46,14.35L163.5,256Z"/><path d="M182.65,243.27l-8.83,3.14a3.41,3.41,0,0,0,4.18,1.24,4,4,0,0,0,2.56-2.51l2.92,1.26c-.57,1.74-1.83,3.34-4.64,4.34a6.61,6.61,0,0,1-8.91-4.19,6.52,6.52,0,0,1,4.08-8.74c3.55-1.26,7,.54,8.29,4.22A12.22,12.22,0,0,1,182.65,243.27ZM173,244l5.53-2a2.81,2.81,0,0,0-3.49-1.25A3,3,0,0,0,173,244Z"/><path d="M183.35,238.14l7.8-2.77,1.13,3.16-7.8,2.78Z"/><path d="M136.36,277l3.37-1.2,6.75,19-3.37,1.2Z"/><path d="M148,288.63l-2.71-7.6,3.35-1.19,2.39,6.72c.82,2.29,1.79,2.82,3.36,2.26s2.34-2.23,1.48-4.65L153.66,278l3.4-1.21,4.48,12.59-3.4,1.21-.53-1.49h-.06a5,5,0,0,1-3.09,3.07C151.73,293.18,149.33,292.46,148,288.63Z"/><path d="M158.69,272a2.27,2.27,0,1,1,2.88,1.32A2.2,2.2,0,0,1,158.69,272Zm1.76,3.64,3.38-1.2L168.31,287l-3.38,1.2Z"/><path d="M170.7,281.69l-2.07-5.81-1.49.53-1-2.81,1.49-.53L166.18,269l3.24-1.57,1.59,4.46,3.4-1.21,1,2.81L172,274.68,173.9,280c.4,1.11.86,1.53,1.66,1.24a4.23,4.23,0,0,0,1.44-1l1.81,2.4a6.44,6.44,0,0,1-3,2C173.61,285.39,171.71,284.53,170.7,281.69Z"/><path d="M177.79,276.59c-1.35-3.81.23-7.42,3.6-8.62a5,5,0,0,1,4.3.33l0-.05-.51-1.44,3.37-1.2,4.48,12.59-3.22,1.15-.53-1.5h-.06a4.78,4.78,0,0,1-3.16,3.1C182.65,282.17,179.18,280.48,177.79,276.59Zm9.85-3.48a3.51,3.51,0,0,0-4.45-2.39,3.43,3.43,0,0,0-2,4.68,3.38,3.38,0,0,0,4.43,2.28A3.45,3.45,0,0,0,187.64,273.11Z"/><polygon class="cls-2" points="216.65 306.13 224.12 327.12 127.81 361.4 73.14 207.81 188.95 166.59 236.15 299.19 216.65 306.13"/><line class="cls-2" x1="236.15" y1="299.19" x2="224.12" y2="327.12"/><line class="cls-6" x1="102.46" y1="232.51" x2="180.8" y2="204.62"/><line class="cls-6" x1="135.95" y1="321.59" x2="214.29" y2="293.7"/><polygon class="cls-2" points="865.24 335.28 841.49 332.42 827.82 352.17 819.24 329.74 719.8 317.77 732.06 215.97 877.49 233.48 865.24 335.28"/><polyline class="cls-2" points="729.53 235.58 657.71 226.94 645.45 328.74 669.2 331.6 677.78 354.02 691.44 334.28 790.88 346.25 793.24 326.65"/><text class="cls-7" transform="translate(760.05 263.97) rotate(6.68)">Jäsen-<tspan x="9.94" y="28.08">e</tspan><tspan class="cls-8" x="24.9" y="28.08">t</tspan><tspan x="34.73" y="28.08">uja</tspan></text><line class="cls-6" x1="719.35" y1="311.6" x2="659.62" y2="304.41"/><line class="cls-6" x1="726.35" y1="257.37" x2="666.62" y2="250.18"/><line class="cls-6" x1="722.85" y1="284.49" x2="663.12" y2="277.3"/><path class="cls-9" d="M748.11,577.19l-20.9,6c-9.71,3.53-21.87,15.93-23.87,27.88"/><path class="cls-9" d="M778.4,577.43l22,5.79c10.62,3.86,16.26,12.88,21.64,25"/><line class="cls-2" x1="384.21" y1="559.38" x2="396.18" y2="564.07"/><path class="cls-2" d="M119.11,595.17s-9,4.18-13.39,7.17c-2.15,1.48-9,7.37-11.81,14.14C84.32,639.57,77,682.89,77,682.89"/><path class="cls-2" d="M141,595.31l4.53,1.53c9,2.88,13.38,9.18,14.14,16.26l11.54,69.79"/><path class="cls-9" d="M185.29,573l-20.7,5.45c-11.55,4.47-13.08,9.26-18.63,18.14"/><path class="cls-9" d="M211.66,572.94l20.3,5.47c4.06,1.48,10.95,5.5,16,14.77l.57,1.09"/><path class="cls-9" d="M559.52,584.52l-27.73,6c-5,1.81-8.92,5.43-12.31,10.22"/><path class="cls-9" d="M588.88,584.39l25.84,6.11C625.5,594.42,643,639.87,643,639.87"/><path class="cls-6" d="M346.26,559.46c-11.65,4.44-11.61,4.43-44.36,16.63"/><path class="cls-9" d="M449.3,582.2s-30.58,2.87-43.86,5.77-20,14-21.59,26.16l-13.71,68.76"/><path class="cls-9" d="M487.08,590.34s16,4,21.18,5.64c15,4.74,27.46,15,30.39,30.3l12,56.61"/><path class="cls-10" d="M174.66,522.76a2.67,2.67,0,0,0-3.43,1.33c-.59,1.34,0,3.24,1,5a50,50,0,0,0,4.69,6.6"/><path class="cls-10" d="M220.6,523.65a3.57,3.57,0,0,1,1.57-1c1.89-.79,3.58,2.73,1.87,5.79s-4.09,7.15-4.09,7.15"/><path class="cls-11" d="M185.39,553.71v18.75s2.12,7.22,12.83,7.22c12.7,0,13.43-7.22,13.43-7.22v-19.2"/><path class="cls-12" d="M749.8,556.39V577s2.3,7.56,13.94,7.56c13.79,0,14.58-6.83,14.58-6.83V556.28"/><path class="cls-10" d="M210.52,554.56h0c-3.37,3.08-7.62,6.11-11.89,6.14s-8.72-3-12.16-6.14h0c-6.42-5.87-10.07-16.25-10.07-22.85V514.42a22.1,22.1,0,0,1,22.1-22.1h0a22.1,22.1,0,0,1,22.1,22.1v17.29C220.59,538,216.93,548.69,210.52,554.56Z"/><path class="cls-6" d="M196.27,540.75a9.21,9.21,0,0,0,3.26-.07"/><circle cx="189.74" cy="530.4" r="1.42"/><path class="cls-6" d="M183.53,528.54a6.13,6.13,0,0,1,4.67-3,8.57,8.57,0,0,1,4.55.68"/><circle cx="206.09" cy="530.4" r="1.42"/><path class="cls-6" d="M212.3,528.54a6.13,6.13,0,0,0-4.67-3,8.57,8.57,0,0,0-4.55.68"/><path class="cls-6" d="M191,546.63a19.57,19.57,0,0,0,6.71,1.12H198a21.9,21.9,0,0,0,6.84-1.26"/><path class="cls-13" d="M128.33,601.19c-8.49,0-9.76-6.1-9.76-6.1s.42-17.22-.12-22c-1.41-12.27-12.39-17.45-12.39-31.3,0-8.8,4-14.21,6.83-17.69,3.46-4.31,8.66-6.65,16.35-7.35,22.13-2,25.82,15.52,26.33,19.06,1.6,11,3.9,15.87,5.13,18.49.7,1.5,1.09,2.32.7,3.11-.64,1.3-2.1,1.34-3.17,1.37a3.22,3.22,0,0,0-1,.1,15.46,15.46,0,0,0,0,2c.07,1.47.79,9.64-2.8,12.61-3.42,2.83-10.14,1.22-11.94.8l-.3,20.91C142.14,595.4,138.38,601.19,128.33,601.19Z"/><circle cx="152.73" cy="548.83" r="1.33"/><path class="cls-6" d="M147.45,547.69a5.48,5.48,0,0,1,6.73-3.84"/><path class="cls-2" d="M269,588.12s-5.9.84-17.7,5.06-18.54,16.86-24.45,32l-21.11,57.68"/><path class="cls-9" d="M408.77,682.89,418.39,646"/><path class="cls-9" d="M508.47,682.89c-7.37-11.34-14-20.65-14-20.65l6.39-20.17,27.82,27.82"/><path class="cls-2" d="M665.48,591.49s-21.74,10.32-23.85,67.44c-.38,10.23-.38,17.19-.2,24"/><path class="cls-2" d="M691,587.87c.4.25,22.29,38,29.89,72.26,2.12,9.54,4.1,16.15,5.85,22.76"/><path class="cls-2" d="M837.53,583.16c-19.72,16.76-20.78,50.08-28.26,99.73"/><path d="M176.41,536.7c1.51,0,5.77-24.4,14.82-24.4,7.73,0,27.14,17.53,29.3,15.37.66-.65,1.4-2.43,2-5a42.73,42.73,0,0,0,.86-8.8c0-8.13-6.18-27.21-25.19-27.21S172.85,504,172.85,514.1C172.86,523.61,176.41,536.7,176.41,536.7Z"/><path class="cls-2" d="M871.21,583.91s11.78,10.85,19.47,33.91c6.76,20.27,10.91,44.46,13.34,65.07"/><path class="cls-2" d="M695.37,682.89c-2.51-19.53-5.82-41.1-9-54.43C680,602,663,602.72,656.57,611.89s-6.59,38.86-1.41,71"/><path class="cls-2" d="M131.86,682.89c-.63-18.07-1.73-40.26-3.58-53-2.32-16.06-9.88-21.39-16.57-21.39-9.14,0-13.24,14-14.54,22.58-2.06,13.68-2.32,32.64-.57,51.78"/><path class="cls-2" d="M846.64,682.89c-.59-20.51-1-44,.23-58.74,2.2-27.12,19.13-29,26.91-20.93,8.78,9.11,13.77,42.73,12.1,79.67"/><path class="cls-2" d="M301.42,591c6.73,4.13,30.5,13.19,35.56,16.87,4.53,3.3,8.59,9.77,11.13,19.65"/><path class="cls-2" d="M314.66,682.89c-1.32-19.46-2.31-37.75-1.26-50.7,2.2-27.12,19.13-29,26.91-20.93s15.64,38.1,15.9,71.63"/><path class="cls-14" d="M150.92,565.17a8.5,8.5,0,0,0,3.27,1.06"/><path d="M475,613l-3.34,16.94.12,0-1.33,7.78c7.06-1.28,13-8.52,18.28-10.89a2.38,2.38,0,0,1,2.61.08c.43.38,1.3,1.6-.84,3.28-.38.3-10.21,7.57-9.92,8.08s10.93-6.15,12.36-6.86,2.54-.22,2.82.46c.38.92.31,1.91-1.6,3.2-.42.29-11.66,6.79-11.75,7.4-.15,1.14,7.47-2.56,10.37-4.35,1-.61,2.07-.55,2.29.61.1.55.38,1.3-1.68,2.67-.53.35-9.48,5.58-9.23,6s3.95-.93,6.48-2.21c2.85-1.44,4.13-1.88,4.2.08,0,1.54-1.75,2.36-3.15,3.27-6.75,4.36-17,8.82-25.57,9.48l-1.51,7.65,31.67,6.05,10.2-52.77Z"/><path d="M597.78,631l.07-1.38-.12,1.37Z"/><path d="M573.39,638.47c.07-2,1.35-1.52,4.2-.08,2.53,1.28,6.24,2.58,6.48,2.21s-8.7-5.6-9.23-6c-2.06-1.37-1.78-2.12-1.68-2.67.22-1.16,1.3-1.22,2.29-.61,2.9,1.79,10.52,5.49,10.37,4.35-.09-.61-11.33-7.11-11.75-7.4-1.91-1.29-2-2.28-1.6-3.2.28-.68,1.39-1.18,2.82-.46s12.15,7.23,12.36,6.86-9.54-7.78-9.92-8.08c-2.14-1.68-1.27-2.9-.84-3.28a2.38,2.38,0,0,1,2.61-.08c5.24,2.35,11.19,9.56,18.23,10.87l.12-1.37.25-4.92a.55.55,0,0,1,.18,0l1.62-18.39H545l5.48,62.37h44L596,650.21a67.85,67.85,0,0,1-19.5-8.47C575.14,640.83,573.34,640,573.39,638.47Z"/><path d="M597.85,629.58l.43-5a1.1,1.1,0,0,0-.18,0Z"/><line class="cls-9" x1="239" y1="634.3" x2="223.66" y2="682.89"/><path d="M747.78,554.79c-5.49,6.1-24,29.5-24,48.21,0,44.74,31.07,42.31,31.07,58.57,0,11.85-2.17,15.48-2.17,15.48s17.09-11.39,5.7-46.18-11.6-45.24-7.73-53.85V557.3Z"/><path class="cls-15" d="M154.18,529.41c-1.37,3.33-10,16.9-16.75,25.71-1.14,1.48-2.45-8.62-4.2-8-6.93,2.63-1.63,14.83-2.81,16-7,7.05-13.27,9.17-20.49,6.13-17.6-7.4-15.05-27.23-13.6-33.34,0,0-6.66-2.13-12.88,12.31s15.86,52.92,7.93,83.1c-6.32,24-26.19,52.92-26.19,52.92s-3.62-29-8.29-37.1C38,614.3,48.78,506.65,96.35,525.86c0,0,15.23-23.6,38.73-17.27C156.51,514.36,154.18,529.41,154.18,529.41Z"/><path d="M771.67,623.52a7.65,7.65,0,0,1,1.76,3.39c1.32,3.15,2.85,7,3.63,8.43a37,37,0,0,0,4.82,6.16L803.41,648l9.15-24.34-41.82-15.71-7.86,20.91a24.8,24.8,0,0,0,7.46,3.75S767.85,624.07,771.67,623.52Z"/><path d="M775.4,653.79c-5.61-.54-14-3.67-19.33-6.81l-11.42,30.39,41.82,15.71L794.2,675l1.58-4.79-22.26-12.8Z"/><path class="cls-16" d="M775.4,653.79l6.48-12.29a37,37,0,0,1-4.82-6.16c-.78-1.45-2.31-5.28-3.63-8.43a7.65,7.65,0,0,0-1.76-3.39c-3.82.55-1.33,9.07-1.33,9.07-6.91-2-9.5-6.71-11.24-4.54-2.09,2.6,2,4,1.63,4.46s-3.71-2.89-5.06-.61,1.62,3.27,1.65,3.89c0,1.15-3-1.09-4,.38-1.51,2.19,1.87,3.77,1.59,4.12s-3.45-.44-4,1.45C750,645.31,766.43,653.18,775.4,653.79Z"/><polyline class="cls-9" points="813.42 651 781.88 641.5 773.52 657.36 809.82 678.24"/><path class="cls-17" d="M609.57,638.44a36.89,36.89,0,0,1-5.72-5.81c-1.32-2-4-8.65-5.75-8l-.32,6.3c-7.06-1.28-13-8.52-18.28-10.88a2.38,2.38,0,0,0-2.61.08c-.43.38-1.3,1.6.84,3.28.38.3,10.21,7.57,9.92,8.08s-10.93-6.15-12.36-6.86-2.54-.22-2.82.46c-.38.92-.31,1.91,1.6,3.2.42.29,11.66,6.79,11.75,7.4.15,1.14-7.47-2.56-10.37-4.35-1-.61-2.07-.55-2.29.61-.1.55-.38,1.3,1.68,2.67.53.35,9.48,5.58,9.23,6s-4-.93-6.48-2.21c-2.85-1.44-4.13-1.88-4.2.08,0,1.54,1.75,2.36,3.15,3.27,7.49,4.82,19.31,9.8,28.3,9.55"/><path class="cls-12" d="M458.55,645.34a38.94,38.94,0,0,0,5.78-5.92,43.55,43.55,0,0,0,3.56-5.81c1-3.45,2.09-4.33,3.84-3.65l-1.33,7.78c7.06-1.28,13-8.52,18.28-10.89a2.38,2.38,0,0,1,2.61.08c.43.38,1.3,1.6-.84,3.28-.38.3-10.21,7.57-9.92,8.08s10.93-6.15,12.36-6.86,2.54-.22,2.82.46c.38.92.31,1.91-1.6,3.2-.42.29-11.66,6.79-11.75,7.4-.15,1.14,7.47-2.56,10.37-4.35,1-.61,2.07-.55,2.29.61.1.55.38,1.3-1.68,2.67-.53.35-9.48,5.58-9.23,6s3.95-.93,6.48-2.21c2.85-1.44,4.13-1.88,4.2.08,0,1.54-1.75,2.36-3.15,3.27-7.49,4.83-19.31,9.81-28.3,9.57"/><path class="cls-16" d="M777.09,557.31h0c-3.66,3.35-8.28,6.64-12.91,6.67s-9.47-3.26-13.21-6.67h0c-7-6.37-10.94-17.65-10.94-24.82V513.71a24,24,0,0,1,24-24h0a24,24,0,0,1,24,24v18.78C788,539.28,784.06,550.94,777.09,557.31Z"/><path class="cls-6" d="M761.62,542.31a9,9,0,0,0,3.57-.16"/><circle cx="754.52" cy="531.07" r="1.54"/><path class="cls-6" d="M747.78,529.05a6.65,6.65,0,0,1,5.08-3.29,9.33,9.33,0,0,1,4.94.74"/><circle cx="772.28" cy="531.07" r="1.54"/><path class="cls-6" d="M779,529.05a6.65,6.65,0,0,0-5.08-3.29,9.33,9.33,0,0,0-4.94.74"/><path class="cls-6" d="M755.85,548.69a21.53,21.53,0,0,0,7.29,1.22h.39a23.72,23.72,0,0,0,7.43-1.37"/><path class="cls-18" d="M737.84,522.75c-1.67-1.48-4.46,2.79-2.61,6.12s5,7.94,5,7.94"/><polyline class="cls-2" points="435.04 583.87 406.54 540.04 392.1 552.87 405.27 588"/><path class="cls-9" d="M452.37,682.89l12.68-20.21-6.54-17.46-39.43,37.67"/><path class="cls-17" d="M268.85,587.59l-.32-25c-1.89.44-8.69,1.77-12.58-.84-1.27-.85-2.09-2.28-2.48-6.18-.06-.65,9.66-.32,10.5-4.54-3.37,0-11,0-11.05-.84a22.78,22.78,0,0,1,.08-3.5,15.15,15.15,0,0,0,0-2.09,3.2,3.2,0,0,0-1-.1c-1.12,0-2.67-.07-3.33-1.44-.41-.83,0-1.7.74-3.28,1.3-2.76,3.71-7.9,5.4-19.47.54-3.72,4.43-22.18,27.73-20.07,8.1.73,13.58,3.19,17.22,7.74,2.94,3.66,7.19,9.35,7.19,18.63,0,14.58-3.57,18.27-5.06,31.19-.58,5-.06,16.19-.06,22.79,0,6.86.06,10.08.06,10.08a40.71,40.71,0,0,1-18.39,3.79C273.25,594,269,587.77,268.85,587.59Z"/><path class="cls-19" d="M247.25,501.67a1.87,1.87,0,0,0-3,1.38c-.2,6.76,2.15,15.55,10.94,17.29,10.7,2.13,24.3,10.3,25,17,.37,3.46,2.51-1.21,5.06-3,2.37-1.65,6.29.57,3.68,5.11-4.49,7.82-3.91,11.8,1.05,16.22,7.68,6.84,11.86,6.56,14.42,3.69s21.65-45.35-1-58.27S265,500,257.88,503.57C253.58,505.74,249.68,503.67,247.25,501.67Z"/><circle cx="258.71" cy="536.5" r="1.4"/><path class="cls-6" d="M264.4,534.93a5.48,5.48,0,0,0-6.73-3.84"/><path class="cls-20" d="M487.53,574.79l-.59,15.76c-28.44,5.77-37.52-7.84-37.52-7.84,1.84-3.5,11-32.69,12.64-40.59"/><path class="cls-20" d="M460.07,548.4c.37-6.68,2.28-24.18,12.18-39.4,12.52-19.26,38.52-8.4,43.49,6.81,6.13,18.75-17.58,64.71-31.33,57.5-15.29-8-21.37-25.24-21.37-25.24C462.85,547.73,460,550.17,460.07,548.4Z"/><path class="cls-6" d="M496.26,544.16c-.72,5.13-1.76,10.27-2.67,10a8.92,8.92,0,0,1-3.14-1.56"/><circle cx="503.14" cy="546.32" r="1.52"/><circle cx="487.2" cy="539.89" r="1.52"/><path class="cls-6" d="M509.27,542.8a4.9,4.9,0,0,0-2.53-4,9.84,9.84,0,0,0-4.95-1.14"/><path class="cls-21" d="M482.09,535.67a6.26,6.26,0,0,1,5.64-1.88,15.85,15.85,0,0,1,6.44,2.34"/><path class="cls-6" d="M495.28,561c-2.09.55-5.73-.53-8.78-1.92"/><path class="cls-6" d="M479.57,553.83c1,1.93,4.17,4,7.22,5.35"/><path class="cls-15" d="M530.66,513.61c3.54,14.18-8.74,22.31-22,24.12-13.85,1.9-30-1.51-31.87-3.11-3.71-3.12-2.09-9.66-6.59-6.88s.35,14.31-3.14,18a16.13,16.13,0,0,1-7.79,5c-1.63.5-7.42-38,11.36-51.34,10.26-7.3,28.49-4.31,33.89.87C512.18,507.52,527.13,499.42,530.66,513.61Z"/><path class="cls-20" d="M587,564.2h0c-3.71,3.4-8.41,6.74-13.11,6.77s-9.62-3.3-13.41-6.77h0c-7.07-6.47-11.1-17.92-11.1-25.19V520a24.36,24.36,0,0,1,24.36-24.36h0A24.36,24.36,0,0,1,598.14,520V539C598.14,545.9,594.11,557.73,587,564.2Z"/><path class="cls-6" d="M571.34,552.36a9.29,9.29,0,0,0,3.62-.16"/><circle cx="564.13" cy="542.63" r="1.57"/><path class="cls-6" d="M557.29,540.58a6.75,6.75,0,0,1,5.15-3.34,9.46,9.46,0,0,1,5,.75"/><circle cx="582.16" cy="542.63" r="1.57"/><path class="cls-6" d="M589,540.58a6.75,6.75,0,0,0-5.15-3.34,9.46,9.46,0,0,0-5,.75"/><path class="cls-6" d="M565.48,558.83a21.88,21.88,0,0,0,7.4,1.24h.4a24.08,24.08,0,0,0,7.54-1.39"/><path d="M575.07,531.13a72.71,72.71,0,0,1,18.19,2.3l-.17,23-5,7.76.11,10.61,14.28.42s2.78-10.91,1-53.17c-.31-7.34-7.69-32.88-28.65-32.88h-3.39c-21,0-28.34,25.55-28.65,32.88-1.78,42.25,1,53.17,1,53.17l15.69.19-.13-11.67-6.17-9.55L553,533.43a72.71,72.71,0,0,1,18.19-2.3Z"/><path class="cls-17" d="M559.34,563.27v21s2.34,7.67,14.14,7.67c14,0,14.8-6.93,14.8-6.93V563.12"/><path class="cls-9" d="M593,555.67c-1.64,2.94-3.64,6.4-6,8.53h0c-3.71,3.4-8.41,6.74-13.11,6.77s-9.62-3.3-13.41-6.77h0c-3.1-2.83-5.56-7-7.41-11"/><path class="cls-9" d="M641.3,678.07c-13.28-3.48-36.57-26.3-36.57-26.3l5-13.64,20.1,8.21"/><path d="M739.94,538c3.49,0,1.57-26.56,16.21-26.56,7.91,0,29.93,30.52,31.79,26.56,1.4-3,3.71-15.54,3.71-26.09,0-9.67-7.92-28.34-28-28.34-20.65,0-27.49,19.08-27.49,28.34C736.19,522.2,739.94,538,739.94,538Z"/><path class="cls-22" d="M676.28,594.44c-10.21.41-10.81-3.19-10.81-3.19s0-.45.06-7.31c0-4.82-.06-12.14-.06-16.05,0-19.39-12.64-21.83-12.64-37.93,0-9.27,4.25-15,7.19-18.63,3.65-4.54,9.12-7,17.22-7.74,23.31-2.11,27.19,16.35,27.73,20.07,1.69,11.57,4.1,16.71,5.4,19.47.74,1.58,1.15,2.45.74,3.28-.67,1.37-2.21,1.41-3.33,1.44a3.52,3.52,0,0,0-1,.1,17.06,17.06,0,0,0,0,2.09,22.78,22.78,0,0,1,.08,3.5c0,.87-7.67.84-11.05.84.84,4.21,10.57,3.88,10.5,4.54-.39,3.89-1.21,5.33-2.48,6.18-3.88,2.61-10.68,1.28-12.58.84l-.24,21.8-.08.11C690.83,588.05,686.55,594,676.28,594.44Z"/><circle cx="701.1" cy="539.88" r="1.4"/><path class="cls-19" d="M704.71,520.15c-1.37,3.33-9.76,15.33-16.55,24.14-1.14,1.48-2.45-8.62-4.2-7.95-6.93,2.63-1.63,14.83-2.81,16-7,7-13.27,9.17-20.49,6.13-17.6-7.4-17.49-33.87-13.57-43.45,0,0,15.23-23.6,38.73-17.27C707.24,503.54,704.71,520.15,704.71,520.15Z"/><circle class="cls-19" cx="646.26" cy="496.66" r="25.29"/><path class="cls-6" d="M695.57,538.27a5.48,5.48,0,0,1,6.73-3.84"/><path class="cls-17" d="M871.21,584.88c-10.39,8.3-25.39,9.67-33.68-.71V558.38c-1.89.44-9,2.14-12.58-.84-3.78-3.13-3-13.52-3-15.06a15.15,15.15,0,0,0,0-2.09,3.2,3.2,0,0,0-1-.1c-1.12,0-2.67-.07-3.33-1.44-.41-.83,0-1.7.74-3.28,1.3-2.76,3.71-7.9,5.4-19.47.54-3.72,4.43-22.18,27.73-20.07,8.1.73,13.58,3.19,17.22,7.74,2.94,3.66,7.19,9.35,7.19,18.63,0,14.58-3.57,18.27-5.06,31.19C870.33,558.57,871.21,584.88,871.21,584.88Z"/><circle cx="827.7" cy="529.76" r="1.4"/><path class="cls-23" d="M829.18,511.84c4.49.89,14.33-2.1,17.7,0,4.65,2.9,2.12,11.3,2.53,15.17.37,3.46,1.4,1.52,4-.25,2.37-1.65,4.36-.08,3.68,5.11-1.39,10.67,1.83,15.34,4.17,17.67,6.49,6.49,11.53.73,13.49-4.83,1.28-3.62,17.74-35.65-3.22-51.21-16.17-12-33-5.27-40.62.63-2.37,1.84-8.43,9.27-7.59,14.33C823.71,511,825.88,511.18,829.18,511.84Z"/><path class="cls-6" d="M833.08,528.42a5.48,5.48,0,0,0-6.73-3.84"/><path class="cls-14" d="M829.58,547.92a8.5,8.5,0,0,1-3.27,1.06"/><path class="cls-12" d="M388.68,514.16c0-16.66-5.8-30.91-23.53-30.91-15,0-24.8,10.61-24.8,27.72a39.93,39.93,0,0,0,5.91,20.7v27.24s5.3,9.14,18.51,9.14c15.65,0,19.45-9.14,19.45-9.14v-26.6C387.19,527.37,388.68,517,388.68,514.16Z"/><path class="cls-6" d="M362.29,523.67a8.91,8.91,0,0,0,3.47-.15"/><circle cx="355.55" cy="513.68" r="1.5"/><path class="cls-6" d="M349.28,511a6.19,6.19,0,0,1,4.36-4,15.84,15.84,0,0,1,6.78-.46"/><circle cx="373.52" cy="513.68" r="1.5"/><path class="cls-6" d="M379.79,511a6.19,6.19,0,0,0-4.36-4,15.84,15.84,0,0,0-6.78-.46"/><path class="cls-16" d="M339.38,507.81c-1.62-1.44-5.4,2.67-3.11,6.42a34.63,34.63,0,0,0,5.32,6.71"/><path d="M371.2,530.07c0,.67-3.08,2.83-6.88,2.83s-6.88-2.16-6.88-2.83,3.08,0,6.88,0S371.2,529.4,371.2,530.07Z"/><path d="M390.25,511.45c-1.35,0-2.6-.25-3.15-1.08.1,3.34.14,6.56.32,8.31a17.44,17.44,0,0,1,1.42-1.46v0a9.15,9.15,0,0,1,2-1.39l.7-4.37h-1.24Z"/><path d="M394.61,525.92l-.12.78c.13-.46.22-.72.22-.72l1.52.95C396.06,526.25,395.44,526,394.61,525.92Z"/><path d="M395.64,519.52h0a9.84,9.84,0,0,0-1.73-.19,6.38,6.38,0,0,0-3.92,1.48l-.35,2.19a13.18,13.18,0,0,1,2.59-1.14,20.79,20.79,0,0,1,3.09-.36h0c1-.08,1.8-.18,1.85-.46C397.31,520.18,396.65,519.74,395.64,519.52Z"/><path d="M396.68,513h0a5.61,5.61,0,0,0-3.37-1.55c-.53,0-1.17,0-1.82,0l-.7,4.37.18-.09a9.38,9.38,0,0,1,5.37-.61h0c1.27.21,1.88.5,1.64-.26A4.52,4.52,0,0,0,396.68,513Z"/><path d="M386.49,525.07a10,10,0,0,1,1.61-1.17h0c.47-.3,1-.61,1.54-.9l.35-2.19c-.49.36-1,.76-1.54,1.2h0c-1.7,1.37-2.55.28-2.37-1-1.1,1.79-2.66,4.07-4.92,5.1-4.25,1.93-10.71-.38-16.48-.38-5.26,0-11.86,2.2-15.47.77-4.54-1.57-7.21-7.41-7.21-7.41,0-1.8,0-4.35,0-5,0-12.49,7.27-24.19,23.75-24.19,14.39,0,21.3,10.76,21.3,19.07.58-.76,2.27-1.06,4.12-1.37.71-2.87,2.18-9.27,2.18-12.5a42.94,42.94,0,0,0-.57-7.06,9.52,9.52,0,0,0-7.08-15.37c0-.09,0-.18,0-.27a9.54,9.54,0,0,0-9.54-9.54,9.65,9.65,0,0,0-3,.47,9.53,9.53,0,0,0-14.74.35,9.37,9.37,0,0,0-3.86-.82,9.54,9.54,0,0,0-9.54,9.54c0,.12,0,.24,0,.37A9.51,9.51,0,0,0,339,487.94a47.6,47.6,0,0,0-1.18,10.72c0,10.06,2.8,21.41,2.8,21.41.36,1,4.75,15.27,10.11,20.67a22.27,22.27,0,0,0,7.44,5.73,14.37,14.37,0,0,0,6.82,2H365c3.85,0,8.07-2.2,12.91-6.63a33.28,33.28,0,0,0,9.24-14.47A1.7,1.7,0,0,1,386.49,525.07Zm-21.34,9.47c-5,0-11.2-1.63-11.2-3.64s6.24-3.64,11.2-3.64,11.2,1.63,11.2,3.64S370.11,534.54,365.15,534.54Z"/><path d="M385.73,547.41l5.3.85,2-12.49a37.05,37.05,0,0,1,1.45-9.08l.13-.77a17.42,17.42,0,0,0-5.65,1.29Z"/><path d="M394.48,526.7a37.05,37.05,0,0,0-1.45,9.08Z"/><path d="M398.22,503.37l.3-1.88-5.3-.85-1.08,6.76,1.14-.22a6,6,0,0,1,4.16,1.08c.41.25.82.51,1.2.79l-.52-.47a18.6,18.6,0,0,1-.14-3.71Z"/><path class="cls-16" d="M398.22,509.83c-.07-.45-.55-4.72.06-6.68s1.51-2.11,1.94-2,3.1,12.57,3.1,12.57"/><path class="cls-16" d="M396.23,526.93c-.51-2.1-5.29-.43-7.56.39a1.63,1.63,0,0,1-2.18-2.25,19.85,19.85,0,0,1,5.74-3.21c1.73-.44,4.84-.25,4.94-.82.21-1.29-1.38-1.65-3.27-1.71s-3.47,1-5.45,2.67c-2.27,1.85-3-.66-1.89-2.27.49-.69,2.65-3.28,4.41-4,4.67-1.94,7.48.63,7-.87a5.71,5.71,0,0,0-4.67-3.41c-2.12-.1-5.78.52-6.4-1.48s3.18-2.1,6.37-2.77,6.83,3.23,8.57,4.22,2.73,7.06,3.32,9.29a31,31,0,0,1,.55,11.09,43.57,43.57,0,0,0-.11,8.86s-7.38,6.79-8.9,8c-6.91-8.5-2-22.64-2-22.64"/></g></svg>